<svg width="1258" height="1126" viewBox="0 0 1258 1126" fill="none" xmlns="http://www.w3.org/2000/svg">
<g filter="url(#filter0_d)">
<path d="M628.201 495.523C626.882 492.682 625.72 489.773 624.714 486.806C621.958 478.657 620.059 470.244 619.049 461.701C615.71 432.966 622.325 403.954 637.79 379.503C648.293 363.029 662.352 349.119 678.932 338.795C698.704 326.429 721.216 319.124 744.481 317.525C771.415 315.624 798.365 321.013 822.495 333.128C850.372 346.935 873.433 368.841 888.653 395.974L881.94 399.374C877.494 401.641 871.046 405.039 863.112 409.835C841.491 422.639 821.948 438.658 805.146 457.34C793.208 470.527 780.522 483.011 767.143 494.735C757.028 504.553 745.44 512.731 732.798 518.968C719.578 524.624 704.934 526.055 690.872 523.066C668.191 518.673 646.776 509.26 628.201 495.523V495.523Z" fill="#65B54E"/>
<path d="M834.783 375.322C840.507 376.178 846.181 377.341 851.779 378.809C806.327 359.586 754.704 361.436 710.744 383.864C719.895 373.064 727.17 360.807 732.274 347.603C734.048 343.081 734.879 338.248 734.715 333.396C725.14 353.163 713.636 371.935 700.371 389.443C672.9 405.708 650.643 429.478 636.216 457.955C627.3 475.414 622.077 494.524 620.875 514.09C620.775 519.954 624.644 525.143 630.289 526.73C639.006 529.431 645.368 546.951 644.322 538.846C640.834 515.834 649.464 464.057 662.451 444.094C684.025 432.912 709.264 431.147 732.185 439.214C743.029 442.714 753.133 448.181 761.995 455.342C748.398 440.638 730.791 430.244 711.352 425.444C699.869 422.585 687.829 422.858 676.487 426.228C691.503 409.874 709.839 396.916 730.268 388.225C739.434 384.231 748.945 381.079 758.686 378.811C771.513 379.297 783.885 383.674 794.163 391.363C797.97 394.288 801.271 397.821 803.926 401.824C797.435 389.426 786.365 380.044 773.07 375.675C778.822 374.715 784.488 373.933 789.892 373.496C804.879 372.351 819.944 372.966 834.783 375.322V375.322Z" fill="#5FA348"/>
<path d="M714.843 167.081C715.128 164.882 715.537 162.699 716.065 160.543C721.871 135.562 738.66 114.544 761.74 103.362C773.658 97.6483 786.702 94.6692 799.918 94.6447C815.713 94.4962 831.296 98.3017 845.244 105.714C861.41 114.181 875.014 126.822 884.643 142.324C895.779 160.223 901.276 181.056 900.421 202.12H895.279C891.966 202.12 887.086 201.508 880.81 201.422C863.8 201.169 846.848 203.46 830.516 208.223C819.063 211.576 807.417 214.254 795.651 216.241C786.314 218.397 776.695 219.073 767.146 218.245C757.354 216.645 748.29 212.079 741.171 205.169C729.685 194.578 720.693 181.568 714.843 167.081V167.081Z" fill="#65B54E"/>
<path d="M876.623 171.179C882.203 176.059 885.341 179.284 885.341 179.284C865.97 152.06 835.573 134.771 802.272 132.042C811.37 129.09 819.916 124.642 827.551 118.879C830.19 116.88 832.382 114.357 834.002 111.469C821.466 119.447 808.181 126.19 794.341 131.603C772.827 131.274 751.662 137.081 733.324 148.338C721.962 155.202 712.114 164.307 704.386 175.098C702.266 178.467 702.698 182.842 705.432 185.732C709.442 190.35 706.916 202.727 709.18 197.673C719.472 178.089 734.67 161.509 753.285 149.556C769.585 150.755 784.666 158.642 794.951 171.348C799.974 177.226 803.846 183.998 806.369 191.309C803.752 178.131 797.327 166.007 787.89 156.444C782.143 150.55 774.916 146.306 766.97 144.154C781.572 140.077 796.876 139.155 811.861 141.452C818.544 142.487 825.131 144.059 831.559 146.158C838.765 150.977 844.33 157.882 847.512 165.944C848.672 169.01 849.291 172.253 849.342 175.533C849.991 166.009 846.86 156.612 840.624 149.383C844.287 150.867 847.86 152.521 851.085 154.176C860.222 158.848 868.792 164.551 876.623 171.179V171.179Z" fill="#5FA348"/>
<path d="M577.904 347.166C577.904 347.166 598.562 368.173 582.264 361.198C565.965 354.223 509.044 335.919 490.825 327.203C466.239 310.838 448.768 285.765 441.924 257.034C436.819 240.905 429.071 225.735 419 212.143C419 212.143 419.872 210.576 421.963 207.438C425.091 202.761 428.683 198.408 432.683 194.449C449.797 178.094 471.299 167.071 494.57 162.722C518.745 158.888 543.493 163.868 564.303 176.754C589.185 191.361 608.967 213.272 620.96 239.513C631.748 260.955 633.688 285.775 626.365 308.635C619.136 327.904 602.922 341.239 577.904 347.166V347.166Z" fill="#65B54E"/>
<path d="M600.918 349.346C584.182 333.132 566.053 313.173 552.366 299.053C548.468 278.023 545.905 256.769 544.694 235.419C542.602 215.633 539.989 199.942 539.989 199.942C540.6 225.571 538.855 243.526 538.505 257.036C537.77 266.669 538.178 276.352 539.727 285.887C524.492 269.55 507.508 254.934 489.083 242.303C484.313 234.862 480.754 226.712 478.535 218.158C477.489 213.898 476.847 209.549 476.618 205.168C476.075 216.129 477.703 227.091 481.411 237.42C478.36 235.59 475.31 233.845 472.694 232.277C465.132 228.208 457.266 224.74 449.16 221.904C443.495 219.9 440.443 218.94 440.443 218.94C463.463 232.919 485.145 248.997 505.209 266.969C495.232 264.988 484.881 266.335 475.748 270.805C472.156 272.501 468.787 274.638 465.724 277.168C479.418 269.79 495.414 267.918 510.44 271.939C538.519 300.26 563.612 331.398 585.316 364.857C588.22 369.229 593.845 370.885 598.653 368.78C604.468 365.566 606.579 358.249 603.367 352.436C602.724 351.279 601.898 350.234 600.918 349.346V349.346Z" fill="#5FA348"/>
<path fill-rule="evenodd" clip-rule="evenodd" d="M707.764 605C669.649 567.288 634.099 530.724 616.52 484.28C607.309 461.256 603.809 436.342 606.322 411.67C610.316 386.609 620.27 362.872 635.347 342.461C641.738 332.986 648.731 323.669 655.872 314.154C665.486 301.346 675.37 288.176 684.423 273.773C701.707 248.174 712.78 218.893 716.762 188.262C724.17 127.245 704.12 63.0032 664.46 25C700.634 67.5374 712.837 130.82 701.158 184.863C695.412 211.211 683.457 235.803 666.293 256.601C657.727 267.254 648.369 277.32 638.829 287.58C629.636 297.468 620.274 307.537 611.291 318.488C589.911 342.45 574.762 371.31 567.186 402.516C560.405 436.011 561.873 470.653 571.458 503.456C580.413 534.234 594.148 563.414 612.166 589.924C615.574 594.988 619.037 600.013 622.555 605H707.764Z" fill="#5FA348"/>
<path d="M645.463 795.068C658.217 794.981 669.824 799.292 679.226 806.38L680.521 614.827L612.839 615.285L611.543 806.837C621.041 799.637 632.707 795.154 645.463 795.068Z" fill="#6C4127"/>
<path d="M684.81 870.19C706.986 848.014 707.227 812.302 685.349 790.425C663.472 768.547 627.76 768.789 605.584 790.964C583.409 813.14 583.167 848.852 605.045 870.729C626.923 892.607 662.635 892.365 684.81 870.19Z" fill="#EBBA16"/>
<path d="M612.068 729.302L679.757 728.844L680.062 683.719L612.373 684.176L612.068 729.302Z" fill="#8E5F46"/>
<path d="M664.435 838.451C662.377 840.508 659.544 841.789 656.431 841.81L633.869 841.954C627.635 841.988 622.625 836.978 622.66 830.745C622.695 824.496 627.795 819.425 634.021 819.383L656.584 819.239C662.818 819.205 667.828 824.215 667.793 830.448C667.771 833.561 666.491 836.395 664.435 838.451Z" fill="white"/>
<path d="M725.486 638.29L567.551 639.358L533.938 605.746L568.008 571.676L725.944 570.608L759.556 604.22L725.486 638.29Z" fill="#EBBA16"/>
<path d="M115.8 1074.2C92.7333 1074.2 75.2 1067.53 63.2 1054.2C51.2 1040.73 45.2 1022.33 45.2 999C45.2 983.267 48.4 969.6 54.8 958C61.2 946.267 70 937.333 81.2 931.2C92.4 924.933 105.067 921.8 119.2 921.8C124.8 921.8 130.2 922.133 135.4 922.8C140.6 923.333 146.867 924.133 154.2 925.2C159.933 926.133 163.867 926.667 166 926.8L163.6 971.4H142.2L135.4 940.8C132.467 937.6 126.333 936 117 936C106.733 936 98.6 941.133 92.6 951.4C86.7333 961.533 83.8 976.467 83.8 996.2C83.8 1015.4 86.6667 1030.8 92.4 1042.4C98.2667 1054 106.733 1059.8 117.8 1059.8C123.267 1059.8 127.4 1059.27 130.2 1058.2C133.133 1057.13 135.6 1055.6 137.6 1053.6L146.6 1032.2L166.2 1034L162.6 1066.6C158.733 1066.87 154 1067.87 148.4 1069.6C143.067 1071.07 138 1072.2 133.2 1073C128.533 1073.8 122.733 1074.2 115.8 1074.2ZM194.622 940.2L179.022 937.4V923.4H288.422L291.022 958.8H275.222L268.222 938.6L228.822 936.6V988.6L253.222 988L256.822 971.6H270.622V1021.8H256.822L253.422 1004.4L228.822 1003.8V1058.2L272.622 1055.4L284.822 1029.6L301.822 1034.4L297.022 1072H179.222V1058.8L194.622 1056.8V940.2ZM326.467 940L310.867 937.4V923.4H361.067L416.267 1008.6L427.467 1032.6V940L410.467 937.4V923.4H461.667V937.4L446.467 940V1072H417.067L358.467 980.6L345.267 954.2V1056.6L366.467 1058.8V1072H310.867V1058.8L326.467 1056.6V940ZM471.605 1058.8L487.005 1056.8V940L472.405 937.2V923.4H503.205C505.738 923.4 508.471 923.333 511.405 923.2C514.471 923.067 516.805 922.933 518.405 922.8C525.605 922.267 531.738 922 536.805 922C551.071 922 562.405 923.4 570.805 926.2C579.205 928.867 585.271 933.133 589.005 939C592.871 944.733 594.805 952.333 594.805 961.8C594.805 970.867 592.405 979.333 587.605 987.2C582.805 995.067 575.738 1000.47 566.405 1003.4C572.538 1005.67 577.671 1009.93 581.805 1016.2C586.071 1022.33 590.471 1030.2 595.005 1039.8C597.671 1045.4 599.805 1049.6 601.405 1052.4C603.005 1055.07 604.671 1056.6 606.405 1057L612.205 1058.8V1072H574.205C572.205 1072 570.138 1069.87 568.005 1065.6C565.871 1061.33 563.138 1054.67 559.805 1045.6C555.671 1034.53 552.071 1026 549.005 1020C546.071 1013.87 542.805 1010.13 539.205 1008.8H521.205V1056.8L539.005 1058.8V1072H471.605V1058.8ZM536.605 995.8C543.538 995.8 548.938 993.133 552.805 987.8C556.671 982.333 558.605 974.133 558.605 963.2C558.605 953.6 556.671 946.6 552.805 942.2C549.071 937.667 542.738 935.4 533.805 935.4C529.005 935.4 524.805 935.733 521.205 936.4V995.2C522.938 995.6 525.805 995.8 529.805 995.8C533.805 995.8 536.071 995.8 536.605 995.8ZM663.494 922.8H699.494L744.294 1056.8L755.294 1058.8V1072H692.294V1058.8L706.494 1056.8L699.694 1032.8H651.894L645.094 1057L660.694 1058.8V1072H607.494L607.294 1058.8L618.894 1056.6L663.494 922.8ZM678.294 957.6L675.294 943.6L672.094 957.8L655.894 1017.4H695.494L678.294 957.6ZM774.9 940.2L759.9 937.4V923.4H828.1V937.4L809.1 940.2V1056.4L846.7 1054.4L859.7 1014.8L878.5 1017.2L872.7 1072H759.5V1058.8L774.9 1056.8V940.2ZM905.025 940.2L888.625 937.4V923.4H956.025V937.4L939.225 940.2V1056.8L956.025 1059V1072H888.825V1058.8L905.025 1056.6V940.2ZM1019.42 938.2L994.423 939.2L986.023 983.8H967.223L970.423 923.4H1102.22L1104.82 983.8H1087.02L1078.22 939.2L1054.02 938.2V1056.6L1081.82 1058.8V1072H994.023V1058.8L1019.42 1056.6V938.2ZM1157.55 1012.4L1116.15 940L1105.15 937.4V923.4H1168.15V937.4L1155.15 940.2L1177.95 986L1182.95 999L1188.15 986L1208.75 940.2L1193.55 937.4V923.4H1244.55V937.4L1232.35 939.6L1193.95 1012.2V1056.6L1215.15 1058.8V1072H1136.95V1058.8L1157.55 1056.6V1012.4Z" fill="url(#paint0_linear)"/>
</g>
<defs>
<filter id="filter0_d" x="0.200195" y="0" width="1257.35" height="1107.2" filterUnits="userSpaceOnUse" color-interpolation-filters="sRGB">
<feFlood flood-opacity="0" result="BackgroundImageFix"/>
<feColorMatrix in="SourceAlpha" type="matrix" values="0 0 0 0 0 0 0 0 0 0 0 0 0 0 0 0 0 0 127 0"/>
<feOffset dx="-16" dy="4"/>
<feGaussianBlur stdDeviation="14.5"/>
<feColorMatrix type="matrix" values="0 0 0 0 0 0 0 0 0 0 0 0 0 0 0 0 0 0 0.25 0"/>
<feBlend mode="normal" in2="BackgroundImageFix" result="effect1_dropShadow"/>
<feBlend mode="normal" in="SourceGraphic" in2="effect1_dropShadow" result="shape"/>
</filter>
<linearGradient id="paint0_linear" x1="640.5" y1="875" x2="640.5" y2="1126" gradientUnits="userSpaceOnUse">
<stop offset="0.213542" stop-color="#D30D0D"/>
<stop offset="0.885417" stop-color="#DE8C2C"/>
</linearGradient>
</defs>
</svg>
