<svg width="1262" height="1113" viewBox="0 0 1262 1113" fill="none" xmlns="http://www.w3.org/2000/svg">
<g filter="url(#filter0_d)">
<path d="M645.201 482.523C643.882 479.682 642.72 476.773 641.714 473.806C638.958 465.657 637.059 457.244 636.049 448.701C632.71 419.966 639.325 390.954 654.79 366.503C665.293 350.029 679.352 336.119 695.932 325.795C715.704 313.429 738.216 306.124 761.481 304.525C788.415 302.624 815.365 308.013 839.495 320.128C867.372 333.935 890.433 355.841 905.653 382.974L898.94 386.374C894.494 388.641 888.046 392.039 880.112 396.835C858.491 409.639 838.948 425.658 822.146 444.34C810.208 457.527 797.522 470.011 784.143 481.735C774.028 491.553 762.44 499.731 749.798 505.968C736.578 511.624 721.934 513.055 707.872 510.066C685.191 505.673 663.776 496.26 645.201 482.523V482.523Z" fill="#65B54E"/>
<path d="M851.783 362.322C857.507 363.178 863.181 364.341 868.779 365.809C823.327 346.586 771.704 348.436 727.744 370.864C736.895 360.064 744.17 347.807 749.274 334.603C751.048 330.081 751.879 325.248 751.715 320.396C742.14 340.163 730.636 358.935 717.371 376.443C689.9 392.708 667.643 416.478 653.216 444.955C644.3 462.414 639.077 481.524 637.875 501.09C637.775 506.954 641.644 512.143 647.289 513.73C656.006 516.431 662.368 533.951 661.322 525.846C657.834 502.834 666.464 451.057 679.451 431.094C701.025 419.912 726.264 418.147 749.185 426.214C760.029 429.714 770.133 435.181 778.995 442.342C765.398 427.638 747.791 417.244 728.352 412.444C716.869 409.585 704.829 409.858 693.487 413.228C708.503 396.874 726.839 383.916 747.268 375.225C756.434 371.231 765.945 368.079 775.686 365.811C788.513 366.297 800.885 370.674 811.163 378.363C814.97 381.288 818.271 384.821 820.926 388.824C814.435 376.426 803.365 367.044 790.07 362.675C795.822 361.715 801.488 360.933 806.892 360.496C821.879 359.351 836.944 359.966 851.783 362.322V362.322Z" fill="#5FA348"/>
<path d="M731.843 154.081C732.128 151.882 732.537 149.699 733.065 147.543C738.871 122.562 755.66 101.544 778.74 90.3618C790.658 84.6483 803.702 81.6692 816.918 81.6447C832.713 81.4962 848.296 85.3017 862.244 92.7137C878.41 101.181 892.014 113.822 901.643 129.324C912.779 147.223 918.276 168.056 917.421 189.12H912.279C908.966 189.12 904.086 188.508 897.81 188.422C880.8 188.169 863.848 190.46 847.516 195.223C836.063 198.576 824.417 201.254 812.651 203.241C803.314 205.397 793.695 206.073 784.146 205.245C774.354 203.645 765.29 199.079 758.171 192.169C746.685 181.578 737.693 168.568 731.843 154.081V154.081Z" fill="#65B54E"/>
<path d="M893.623 158.179C899.203 163.059 902.341 166.284 902.341 166.284C882.97 139.06 852.573 121.771 819.272 119.042C828.37 116.09 836.916 111.642 844.551 105.879C847.19 103.88 849.382 101.357 851.002 98.4691C838.466 106.447 825.181 113.19 811.341 118.603C789.827 118.274 768.662 124.081 750.324 135.338C738.962 142.202 729.114 151.307 721.386 162.098C719.266 165.467 719.698 169.842 722.432 172.732C726.442 177.35 723.916 189.727 726.18 184.673C736.472 165.089 751.67 148.509 770.285 136.556C786.585 137.755 801.666 145.642 811.951 158.348C816.974 164.226 820.846 170.998 823.369 178.309C820.752 165.131 814.327 153.007 804.89 143.444C799.143 137.55 791.916 133.306 783.97 131.154C798.572 127.077 813.876 126.155 828.861 128.452C835.544 129.487 842.131 131.059 848.559 133.158C855.765 137.977 861.33 144.882 864.512 152.944C865.672 156.01 866.291 159.253 866.342 162.533C866.991 153.009 863.86 143.612 857.624 136.383C861.287 137.867 864.86 139.521 868.085 141.176C877.222 145.848 885.792 151.551 893.623 158.179V158.179Z" fill="#5FA348"/>
<path d="M594.904 334.166C594.904 334.166 615.562 355.173 599.264 348.198C582.965 341.223 526.044 322.919 507.825 314.203C483.239 297.838 465.768 272.765 458.924 244.034C453.819 227.905 446.071 212.735 436 199.143C436 199.143 436.872 197.576 438.963 194.438C442.091 189.761 445.683 185.408 449.683 181.449C466.797 165.094 488.299 154.071 511.57 149.722C535.745 145.888 560.493 150.868 581.303 163.754C606.185 178.361 625.967 200.272 637.96 226.513C648.748 247.955 650.688 272.775 643.365 295.635C636.136 314.904 619.922 328.239 594.904 334.166V334.166Z" fill="#65B54E"/>
<path d="M617.918 336.346C601.182 320.132 583.053 300.173 569.366 286.053C565.468 265.023 562.905 243.769 561.694 222.419C559.602 202.633 556.989 186.942 556.989 186.942C557.6 212.571 555.855 230.526 555.505 244.036C554.77 253.669 555.178 263.352 556.727 272.887C541.492 256.55 524.508 241.934 506.083 229.303C501.313 221.862 497.754 213.712 495.535 205.158C494.489 200.898 493.847 196.549 493.618 192.168C493.075 203.129 494.703 214.091 498.411 224.42C495.36 222.59 492.31 220.845 489.694 219.277C482.132 215.208 474.266 211.74 466.16 208.904C460.495 206.9 457.443 205.94 457.443 205.94C480.463 219.919 502.145 235.997 522.209 253.969C512.232 251.988 501.881 253.335 492.748 257.805C489.156 259.501 485.787 261.638 482.724 264.168C496.418 256.79 512.414 254.918 527.44 258.939C555.519 287.26 580.612 318.398 602.316 351.857C605.22 356.229 610.845 357.885 615.653 355.78C621.468 352.566 623.579 345.249 620.367 339.436C619.724 338.279 618.898 337.234 617.918 336.346V336.346Z" fill="#5FA348"/>
<path fill-rule="evenodd" clip-rule="evenodd" d="M724.764 592C686.649 554.288 651.099 517.724 633.52 471.28C624.309 448.256 620.809 423.342 623.322 398.67C627.316 373.609 637.27 349.872 652.347 329.461C658.738 319.986 665.731 310.669 672.872 301.154C682.486 288.346 692.37 275.176 701.423 260.773C718.707 235.174 729.78 205.893 733.762 175.262C741.17 114.245 721.12 50.0032 681.46 12C717.634 54.5374 729.837 117.82 718.158 171.863C712.412 198.211 700.457 222.803 683.293 243.601C674.727 254.254 665.369 264.32 655.829 274.58C646.636 284.468 637.274 294.537 628.291 305.488C606.911 329.45 591.762 358.31 584.186 389.516C577.405 423.011 578.873 457.653 588.458 490.456C597.413 521.234 611.148 550.414 629.166 576.924C632.574 581.988 636.037 587.013 639.555 592H724.764Z" fill="#5FA348"/>
<path d="M662.463 782.068C675.217 781.981 686.824 786.292 696.226 793.38L697.521 601.827L629.839 602.285L628.543 793.837C638.041 786.637 649.707 782.154 662.463 782.068Z" fill="#6C4127"/>
<path d="M701.81 857.19C723.986 835.014 724.227 799.302 702.349 777.425C680.472 755.547 644.76 755.789 622.584 777.964C600.409 800.14 600.167 835.852 622.045 857.729C643.923 879.607 679.635 879.365 701.81 857.19Z" fill="#EBBA16"/>
<path d="M629.068 716.302L696.757 715.844L697.062 670.719L629.373 671.176L629.068 716.302Z" fill="#8E5F46"/>
<path d="M681.435 825.451C679.377 827.508 676.544 828.789 673.431 828.81L650.869 828.954C644.635 828.988 639.625 823.978 639.66 817.745C639.695 811.496 644.795 806.425 651.021 806.383L673.584 806.239C679.818 806.205 684.828 811.215 684.793 817.448C684.771 820.561 683.491 823.395 681.435 825.451Z" fill="white"/>
<path d="M742.486 625.29L584.551 626.358L550.938 592.746L585.008 558.676L742.944 557.608L776.556 591.22L742.486 625.29Z" fill="#EBBA16"/>
<path d="M132.8 1061.2C109.733 1061.2 92.2 1054.53 80.2 1041.2C68.2 1027.73 62.2 1009.33 62.2 986C62.2 970.267 65.4 956.6 71.8 945C78.2 933.267 87 924.333 98.2 918.2C109.4 911.933 122.067 908.8 136.2 908.8C141.8 908.8 147.2 909.133 152.4 909.8C157.6 910.333 163.867 911.133 171.2 912.2C176.933 913.133 180.867 913.667 183 913.8L180.6 958.4H159.2L152.4 927.8C149.467 924.6 143.333 923 134 923C123.733 923 115.6 928.133 109.6 938.4C103.733 948.533 100.8 963.467 100.8 983.2C100.8 1002.4 103.667 1017.8 109.4 1029.4C115.267 1041 123.733 1046.8 134.8 1046.8C140.267 1046.8 144.4 1046.27 147.2 1045.2C150.133 1044.13 152.6 1042.6 154.6 1040.6L163.6 1019.2L183.2 1021L179.6 1053.6C175.733 1053.87 171 1054.87 165.4 1056.6C160.067 1058.07 155 1059.2 150.2 1060C145.533 1060.8 139.733 1061.2 132.8 1061.2ZM211.622 927.2L196.022 924.4V910.4H305.422L308.022 945.8H292.222L285.222 925.6L245.822 923.6V975.6L270.222 975L273.822 958.6H287.622V1008.8H273.822L270.422 991.4L245.822 990.8V1045.2L289.622 1042.4L301.822 1016.6L318.822 1021.4L314.022 1059H196.222V1045.8L211.622 1043.8V927.2ZM343.467 927L327.867 924.4V910.4H378.067L433.267 995.6L444.467 1019.6V927L427.467 924.4V910.4H478.667V924.4L463.467 927V1059H434.067L375.467 967.6L362.267 941.2V1043.6L383.467 1045.8V1059H327.867V1045.8L343.467 1043.6V927ZM488.605 1045.8L504.005 1043.8V927L489.405 924.2V910.4H520.205C522.738 910.4 525.471 910.333 528.405 910.2C531.471 910.067 533.805 909.933 535.405 909.8C542.605 909.267 548.738 909 553.805 909C568.071 909 579.405 910.4 587.805 913.2C596.205 915.867 602.271 920.133 606.005 926C609.871 931.733 611.805 939.333 611.805 948.8C611.805 957.867 609.405 966.333 604.605 974.2C599.805 982.067 592.738 987.467 583.405 990.4C589.538 992.667 594.671 996.933 598.805 1003.2C603.071 1009.33 607.471 1017.2 612.005 1026.8C614.671 1032.4 616.805 1036.6 618.405 1039.4C620.005 1042.07 621.671 1043.6 623.405 1044L629.205 1045.8V1059H591.205C589.205 1059 587.138 1056.87 585.005 1052.6C582.871 1048.33 580.138 1041.67 576.805 1032.6C572.671 1021.53 569.071 1013 566.005 1007C563.071 1000.87 559.805 997.133 556.205 995.8H538.205V1043.8L556.005 1045.8V1059H488.605V1045.8ZM553.605 982.8C560.538 982.8 565.938 980.133 569.805 974.8C573.671 969.333 575.605 961.133 575.605 950.2C575.605 940.6 573.671 933.6 569.805 929.2C566.071 924.667 559.738 922.4 550.805 922.4C546.005 922.4 541.805 922.733 538.205 923.4V982.2C539.938 982.6 542.805 982.8 546.805 982.8C550.805 982.8 553.071 982.8 553.605 982.8ZM680.494 909.8H716.494L761.294 1043.8L772.294 1045.8V1059H709.294V1045.8L723.494 1043.8L716.694 1019.8H668.894L662.094 1044L677.694 1045.8V1059H624.494L624.294 1045.8L635.894 1043.6L680.494 909.8ZM695.294 944.6L692.294 930.6L689.094 944.8L672.894 1004.4H712.494L695.294 944.6ZM791.9 927.2L776.9 924.4V910.4H845.1V924.4L826.1 927.2V1043.4L863.7 1041.4L876.7 1001.8L895.5 1004.2L889.7 1059H776.5V1045.8L791.9 1043.8V927.2ZM922.025 927.2L905.625 924.4V910.4H973.025V924.4L956.225 927.2V1043.8L973.025 1046V1059H905.825V1045.8L922.025 1043.6V927.2ZM1036.42 925.2L1011.42 926.2L1003.02 970.8H984.223L987.423 910.4H1119.22L1121.82 970.8H1104.02L1095.22 926.2L1071.02 925.2V1043.6L1098.82 1045.8V1059H1011.02V1045.8L1036.42 1043.6V925.2ZM1174.55 999.4L1133.15 927L1122.15 924.4V910.4H1185.15V924.4L1172.15 927.2L1194.95 973L1199.95 986L1205.15 973L1225.75 927.2L1210.55 924.4V910.4H1261.55V924.4L1249.35 926.6L1210.95 999.2V1043.6L1232.15 1045.8V1059H1153.95V1045.8L1174.55 1043.6V999.4Z" fill="url(#paint0_linear)"/>
</g>
<defs>
<filter id="filter0_d" x="0.200195" y="0" width="1261.35" height="1103.2" filterUnits="userSpaceOnUse" color-interpolation-filters="sRGB">
<feFlood flood-opacity="0" result="BackgroundImageFix"/>
<feColorMatrix in="SourceAlpha" type="matrix" values="0 0 0 0 0 0 0 0 0 0 0 0 0 0 0 0 0 0 127 0"/>
<feOffset dx="-35" dy="15"/>
<feGaussianBlur stdDeviation="13.5"/>
<feColorMatrix type="matrix" values="0 0 0 0 0 0 0 0 0 0 0 0 0 0 0 0 0 0 0.25 0"/>
<feBlend mode="normal" in2="BackgroundImageFix" result="effect1_dropShadow"/>
<feBlend mode="normal" in="SourceGraphic" in2="effect1_dropShadow" result="shape"/>
</filter>
<linearGradient id="paint0_linear" x1="657.5" y1="862" x2="657.5" y2="1113" gradientUnits="userSpaceOnUse">
<stop offset="0.213542" stop-color="#D30D0D"/>
<stop offset="0.885417" stop-color="#DE8C2C"/>
</linearGradient>
</defs>
</svg>
